PathFileType	4	(X/Y/Z)	40_2_104_p1_0-296_filt_butterworth.trc
DataRate	CameraRate	NumFrames	NumMarkers	Units	OrigDataRate	OrigDataStartFrame	OrigNumFrames
53.0	53.0	5	27	m	53.0	222	296
Frame#	Time	RHip			RKnee			RAnkle			RBigToe			RSmallToe			RHeel			LHip			LKnee			LAnkle			LBigToe			LSmallToe			LHeel			Neck			Head			Nose			RShoulder			RElbow			RWrist			RThumb			RIndex			RPinky			LShoulder			LElbow			LWrist			LThumb			LIndex			LPinky			
		X1	Y1	Z1	X2	Y2	Z2	X3	Y3	Z3	X4	Y4	Z4	X5	Y5	Z5	X6	Y6	Z6	X7	Y7	Z7	X8	Y8	Z8	X9	Y9	Z9	X10	Y10	Z10	X11	Y11	Z11	X12	Y12	Z12	X13	Y13	Z13	X14	Y14	Z14	X15	Y15	Z15	X16	Y16	Z16	X17	Y17	Z17	X18	Y18	Z18	X19	Y19	Z19	X20	Y20	Z20	X21	Y21	Z21	X22	Y22	Z22	X23	Y23	Z23	X24	Y24	Z24	X25	Y25	Z25	X26	Y26	Z26	X27	Y27	Z27	
222	4.188679245283019	0.3296195544463316	0.8159180863197377	0.6312411457724301	0.3135944374914542	0.35409150735211503	0.7213522919206324	0.32293946851271943	-0.02961704002533172	0.7890106456134732	0.30480795797011173	-0.08163494289781031	0.6752506186216912	0.3750825134874196	-0.07695134698636263	0.6806510224425036	0.31490507762092634	-0.0952692334776207	0.8501391447024795	0.13400499563511178	0.8151572178645278	0.6314001107661187	0.11506134401132789	0.3415018362678882	0.7620167046890626	0.11388302165087522	-0.08217886869217769	0.840081499619591	0.12807444461480896	-0.07863900921236833	0.658523360856787	0.0767833208116104	-0.08299903942980655	0.703980228501568	0.1400061528601805	-0.11926763436450066	0.8735141548961027	0.2331382607620997	1.3519390668728257	0.5821904536902921	0.23701749934321892	1.5804664696388315	0.5405722537991118	0.27095317241196465	1.4513503343875558	0.48631771912664823	0.36391217855984914	1.271331884285241	0.6243863492532862	0.44818396447479497	1.015499800823488	0.6256622518436301	0.5169094091272399	0.7938727363838576	0.5281782874348191	0.4623990420729833	0.6681362250923004	0.4736803969482064	0.48020652871255587	0.6601486006941053	0.45749971250605537	0.504977423704864	0.652722984649494	0.5264663155181213	0.08174771075289847	1.2613113884176403	0.639200691598166	0.003692618992903886	1.0147634148781444	0.6217039915072602	-0.07461079248125753	0.7810115909980659	0.5499954850082046	-0.015094581263040217	0.654113889800613	0.5760820088696679	-0.033591113348288223	0.6307325660264831	0.5952287887242304	-0.059724337449653664	0.6415281942877961	0.6011302455280161	
223	4.2075471698113205	0.32858227993966954	0.8165004176933339	0.6310963201679811	0.31358567872223747	0.35446561406793603	0.721171167971894	0.32303643653407993	-0.029697118950303858	0.7884212658551801	0.3042877651852283	-0.08163674759679171	0.6751470287896771	0.37426932409398334	-0.07695118021751145	0.6804565988415033	0.314811729491847	-0.09519869907927028	0.8498055738242217	0.1336877740111471	0.8157275978945294	0.6295181022562306	0.11346322340419485	0.3405440434897945	0.7641566217352406	0.11424338105391164	-0.08273344768266347	0.8403919972499261	0.1281357062674291	-0.0801560813579567	0.6583641353488282	0.07682182837229751	-0.08369495944068468	0.7037643025892448	0.14001167480224166	-0.12004861330774835	0.8747992792204055	0.23315779590646346	1.3529173477357692	0.5820790492469092	0.2379488601637339	1.580617832107474	0.5432868133274287	0.2708829661068538	1.4530001326039028	0.4865699215389901	0.3634891361223881	1.2714963136566169	0.6219005423635023	0.4523540332006406	1.0188589303898983	0.6195177358873473	0.5374063604125878	0.7985786076742579	0.5224174623626029	0.4950129341329123	0.6722357069844951	0.46147092892429964	0.5161681486724843	0.6643062488413103	0.44679269977631497	0.5349681374481954	0.6575959633651591	0.5234170921582018	0.08184690510944681	1.2620077232697933	0.6380514909123058	-0.005922268233472564	1.018819328497574	0.6198568936743066	-0.09236636114597005	0.7892667637161017	0.5500180361222503	-0.04051439052354196	0.6614382531996467	0.571906546067702	-0.05965731961161117	0.6331674377895369	0.5930503736580051	-0.076551278826399	0.6469458917223047	0.5992726680408078	
224	4.226415094339623	0.3274783174761055	0.8171399131975199	0.6307772329990178	0.3135660687381489	0.3549471044611506	0.7209831978539172	0.32310404570088613	-0.02963503312465751	0.787821326898507	0.3038789875681074	-0.08142310985035385	0.6746425564146397	0.3734076011184684	-0.07668738703005257	0.6797891108286379	0.31464094827457706	-0.09498332084837377	0.8494635621634464	0.1332747499616402	0.8163939966731228	0.6271944218834435	0.11192251120701183	0.3396262973614853	0.7661644382344465	0.11464343359706963	-0.0831379575231457	0.8406515607466295	0.1285282603167891	-0.08072588883001168	0.6570208676485175	0.07671852304337046	-0.08449043311528551	0.7033822426239374	0.14002979223428538	-0.12077674720489964	0.8758901699650719	0.2331855827431403	1.3542255753197068	0.58197743239332	0.2386683615075571	1.5808771011898062	0.5456951303228741	0.27081261047494903	1.4545362942238258	0.4867839281889811	0.3631009658853347	1.2716268898955625	0.6195790355392764	0.4583022116980455	1.0224150325435235	0.6108249300098904	0.559067277252742	0.801810051822726	0.5177310280329309	0.5328347992066953	0.6762857504305598	0.44914536879474676	0.5569893958807189	0.6675311312930733	0.441370098760708	0.5691129990986725	0.6625359785914522	0.5225291316966636	0.0819384608185469	1.2627661444719795	0.6369912141452796	-0.016213512826746337	1.022481528454353	0.6199964107118813	-0.11403865707425795	0.7955693503394663	0.55506137153044	-0.06953244458764338	0.6711898041008435	0.5626855568193643	-0.09027813380560754	0.6386735414508355	0.5835110724650108	-0.09887651328768253	0.6529685577204188	0.5965606881896073	
225	4.245283018867925	0.3262719485994762	0.8178218935048378	0.6302677580826004	0.31353157650056596	0.3556458718874413	0.7207937873391547	0.32313369676606113	-0.029322705346242386	0.7871078100497916	0.303506738868302	-0.08075756107502699	0.6734171000472696	0.37254519888605586	-0.07598160780540392	0.6783612442431075	0.31436677826552956	-0.09461718121914606	0.849121626639647	0.1327760664044014	0.8171103375012804	0.6244402986952403	0.11048290068369206	0.3388294603262138	0.7679927650692836	0.11504042977787647	-0.08339398177303459	0.8408523288305915	0.12935846345663177	-0.08004075958715487	0.6545431763247058	0.07640760726988667	-0.08521734206242958	0.7028444730374048	0.1400288752859174	-0.12134429045885305	0.8768001579545275	0.23320074145163763	1.3556802806636663	0.5819065151891679	0.23897662408653164	1.5812657173826246	0.547669073634246	0.27075433505362356	1.4557160967546245	0.48693411443173024	0.3628033141146745	1.2717878534481417	0.6177586432234131	0.46636954079120874	1.0261619680476133	0.6011928152256667	0.5818577366216958	0.8048747864550206	0.5147972736317189	0.5742633180752317	0.681059122382672	0.43933724346604996	0.5996981451469169	0.671289530864199	0.44223936122552693	0.6048331926096455	0.6681487006168648	0.5238030268360573	0.08215711834962706	1.2635272024769146	0.635705020952384	-0.02597900481110273	1.0263698410574307	0.6210068237391353	-0.1387828491235373	0.800224084984767	0.5638771247486496	-0.10094637737182242	0.6825600752821503	0.5496825290030046	-0.12445900273837907	0.6476638751892365	0.5683679616828873	-0.1266520225243719	0.6596198340207775	0.5934682323572121	
226	4.264150943396227	0.32493677967043255	0.8185629019761674	0.6295728757943503	0.31347647018998204	0.3564987125406936	0.7206183301495342	0.3231261844403915	-0.028823880870692237	0.7862680168118367	0.3030728594857774	-0.07961483107282373	0.6714966425619656	0.3717999144852757	-0.07485562762825651	0.676282133958175	0.3139910824486524	-0.09427100790818256	0.8487766039083556	0.1322117673578438	0.8177786518707085	0.6214843259154603	0.10918680079277249	0.3382234601875042	0.7695887842413288	0.11537529689911574	-0.08352205599268364	0.8410014826487046	0.13056907273223217	-0.07826996214770085	0.6512911848701092	0.07585122877410361	-0.08584793151023891	0.7021585915639671	0.14002370607817738	-0.12166872380491889	0.8775187487530394	0.23319735560779148	1.3571293806421656	0.5818849288644159	0.23889100526333762	1.581761994345542	0.5490475342318321	0.27071563654680864	1.4564268363138217	0.4870195078569325	0.3626443807974322	1.272066546664209	0.6167543417957833	0.4765738631893849	1.0300882127647504	0.5920236204438611	0.6060462832741751	0.8101795606895434	0.5130386055571627	0.6173501778590649	0.6881237930879172	0.433888478529296	0.6420424656002479	0.6775857752879354	0.44729431139670905	0.6393263254862585	0.674809756723877	0.5269090881926026	0.08245432554264687	1.2642325319671774	0.6341817311400829	-0.034626633526884096	1.0307507412273025	0.6220180009192395	-0.16442015598461207	0.8048797782615803	0.5731040817135044	-0.13383719497944055	0.6955690587373861	0.5346266875681724	-0.16147998681665582	0.6601706102463284	0.5509438935498544	-0.15902242980227058	0.6675423534740642	0.5912446624968946	
